<svg width="96" height="126" viewBox="0 0 96 126" fill="none" xmlns="http://www.w3.org/2000/svg">
<path d="M33.3 79.6C32.5 79.6 31.8 80.1 31.5 80.8C31.2 81.5 31.5 82.4 32.1 82.9C33.5 84 34.9 84.8 36.1 85.5C37.5 86.2 38.8 86.8 40 87.2C40.5 87.8 40.9 88.4 41.4 89C45.1 93.2 49.8 95.5 54.6 95.5C60.1 95.5 65.2 92.6 69.1 87.4C70.5 87 72 86.3 73.6 85.5C74.9 84.9 76.2 84 77.6 82.9C78.2 82.4 78.5 81.6 78.2 80.8C77.9 80.1 77.2 79.6 76.4 79.6C75.2 79.6 74.1 79.6 73 79.5C74.3 75.8 75 71.6 75 67.3C75 66.3 74.2 65.5 73.2 65.5C72.2 65.5 71.4 66.3 71.4 67.3C71.4 71.4 70.7 75.4 69.4 78.8C69.2 78.7 69 78.7 68.8 78.6C65.9 77.4 64.4 75.9 63.3 74.8C62.8 74.3 62.4 73.9 61.9 73.6C61.7 73.5 61.5 73.4 61.2 73.2C59.3 72.3 57.1 72.4 55.4 73.4C55.1 73.6 54.8 73.8 54.5 74C54.2 73.8 53.9 73.5 53.6 73.4C51.9 72.4 49.7 72.3 47.8 73.2C47.6 73.3 47.4 73.4 47.2 73.5C46.7 73.8 46.3 74.2 45.8 74.7C44.7 75.8 43.3 77.3 40.3 78.5C40 78.6 39.7 78.7 39.4 78.8C38.7 76.9 38.1 74.8 37.8 72.6C37.6 71.6 36.7 70.9 35.7 71.1C34.7 71.3 34 72.2 34.2 73.2C34.5 75.4 35.1 77.5 35.8 79.5C35.3 79.6 34.4 79.6 33.3 79.6ZM54.8 91.8C51.7 91.8 48.6 90.5 46.1 88.2C46.7 88.2 47.3 88.2 47.9 88.2C50.7 88.2 53.4 86.9 55.1 84.7C56.8 86.9 59.5 88.2 62.3 88.2C62.8 88.2 63.2 88.2 63.7 88.2C61 90.5 58 91.8 54.8 91.8ZM42.2 82C45.8 80.5 47.7 78.6 48.8 77.4C49.1 77.1 49.4 76.8 49.6 76.7C49.6 76.7 49.7 76.6 49.8 76.6C50.6 76.2 51.6 76.3 52.2 76.7C52.4 76.8 52.5 76.9 52.7 77.1C53.3 77.7 54.1 78.1 54.9 78.1C55.7 78.1 56.5 77.8 57.1 77.1C57.2 77 57.4 76.8 57.6 76.7C58.3 76.3 59.2 76.3 60 76.6C60.1 76.6 60.2 76.7 60.2 76.7C60.3 76.8 60.7 77.2 61 77.4C62.1 78.5 64.1 80.5 67.6 82C68.5 82.4 69.5 82.6 70.6 82.9C67.6 84.2 65.3 84.7 62 84.7C60.2 84.7 58.4 83.8 57.4 82.2C56.8 81.3 55.8 80.8 54.8 80.8C53.8 80.8 52.8 81.3 52.2 82.2C51.2 83.7 49.4 84.7 47.6 84.7C44.3 84.7 42 84.2 39 82.9C40.3 82.6 41.3 82.4 42.2 82Z" fill="white"/>
<path d="M88.5 6.59999C84.2 2.49999 78.4 0.299994 72.1 0.499994C65.3 0.699994 58.6 3.69999 53.4 8.69999C50.2 6.09999 46.1 4.8 41.8 4.9C36.1 5.1 30.5 7.69999 26.4 12.2C22.7 16.2 20.5 21.2 20.2 26.4C19.2 26.5 18.3 26.7 17.3 26.9C5.99999 29.7 -1.30001 39.8 0.999989 49.3C1.99999 53.4 4.59999 56.9 8.39999 59.2C11.7 61.2 15.6 62.2 19.6 62.2C21.6 62.2 23.6 62 25.6 61.4C27.6 60.9 29.6 60.1 31.4 59.2C31.9 62 32.5 64.7 33.3 66.9C33.3 67 33.4 67.1 33.4 67.1C33.4 67.2 33.5 67.2 33.5 67.3C33.5 67.3 33.5 67.3 33.5 67.4C33.5 67.5 33.6 67.5 33.7 67.6C33.8 67.7 33.8 67.7 33.9 67.7C34 67.7 34 67.8 34.1 67.8C34.2 67.8 34.2 67.9 34.3 67.9C34.4 67.9 34.5 67.9 34.5 68C34.5 68 34.5 68 34.6 68C34.7 68 34.8 68 34.8 68C34.9 68 35 68 35.1 68C35.1 68 35.1 68 35.2 68C35.3 68 35.4 68 35.5 67.9H35.6C35.6 67.9 35.6 67.9 35.7 67.9H35.8H35.9C35.9 67.9 35.9 67.9 36 67.9C36 67.9 36.1 67.9 36.1 67.8C36.1 67.8 36.1 67.8 36.2 67.8L36.3 67.7C38.1 65.8 44.3 63.1 52.9 61.5C61.6 59.9 69.1 60.1 73 62.2H73.1H73.2H73.3H73.4H73.5C73.5 62.2 73.5 62.2 73.6 62.2H73.7C73.7 62.2 73.7 62.2 73.8 62.2C73.9 62.2 74 62.2 74.1 62.2C74.1 62.2 74.1 62.2 74.2 62.2C74.3 62.2 74.4 62.2 74.4 62.1C74.5 62.1 74.6 62 74.6 62C74.7 62 74.8 61.9 74.8 61.8C74.9 61.7 74.9 61.7 75 61.6C75.1 61.5 75.1 61.5 75.2 61.4L75.3 61.3V61.2C75.3 61.1 75.4 61 75.4 60.9C76.1 57.7 76.3 54.5 76.1 51.4C80.3 49.8 84.1 47.2 87.3 43.7C97.7 32.6 98.2 16 88.5 6.59999ZM84.8 41.3C82.2 44.1 79.1 46.3 75.7 47.7C75.2 45.4 74.5 43 73.5 40.8C73.1 39.9 72 39.5 71.1 39.9C70.2 40.3 69.8 41.4 70.2 42.3C71.2 44.6 72 47 72.4 49.4C72.9 52.3 72.9 55.2 72.5 58C65.8 55.8 56.4 57.1 52.3 57.9C47 58.9 40.1 60.8 36 63.4C35.3 60.6 34.7 57.3 34.4 54.3C34.2 52.2 34.2 50.2 34.3 48.1C34.4 47.1 33.6 46.2 32.6 46.2C31.6 46.1 30.7 46.9 30.7 47.9C30.5 50.1 30.6 52.4 30.8 54.7C30.8 55.1 30.9 55.5 30.9 55.9C30.6 55.9 30.2 55.9 29.9 56.1C28.3 57 26.6 57.6 24.8 58.1C19.6 59.4 14.3 58.7 10.3 56.2C7.29999 54.3 5.29999 51.7 4.49999 48.5C2.69999 40.9 8.79999 32.8 18.2 30.5C19.5 30.2 20.8 30 22.1 29.9C25.2 29.7 28.1 30.3 30.8 31.5C31 31.6 31.3 31.7 31.6 31.7C32.3 31.7 32.9 31.3 33.2 30.6C33.6 29.7 33.2 28.6 32.3 28.2C29.6 26.9 26.8 26.3 23.8 26.2C24.2 22.1 26 17.9 29 14.7C32.5 10.9 37.2 8.69999 41.9 8.49999C45.3 8.39999 48.4 9.4 50.9 11.3C48.3 14.5 46.3 18.2 45.1 22C44.8 23 45.4 24 46.3 24.3C46.5 24.4 46.7 24.4 46.8 24.4C47.6 24.4 48.3 23.9 48.5 23.1C49.6 19.3 51.8 15.5 54.7 12.4C59.4 7.29999 65.8 4.29999 72.1 4.09999C77.4 3.89999 82.3 5.79999 85.9 9.19999C94.3 17.2 93.8 31.6 84.8 41.3Z" fill="white"/>
<path d="M66.6999 38.8C59.3999 36.4 42.8 38.9 37.6 44.2C36.9 44.9 36.9 46.1 37.6 46.8C38 47.1 38.4 47.3 38.9 47.3C39.4 47.3 39.7999 47.1 40.1999 46.8C41.9999 44.9 46.6 43.2 52 42.2C57.4 41.3 62.6 41.3 65.6 42.3C66.5 42.6 67.5999 42.1 67.8999 41.1C68.1999 40.1 67.6999 39.1 66.6999 38.8Z" fill="white"/>
<path d="M61.3 104C61.3 103.9 61.3 103.7 61.3 103.6C61.3 100 58.4 97.1 54.9 97.1C51.4 97.1 48.5 100 48.5 103.6C48.5 103.7 48.5 103.9 48.5 104C46 104.8 41.4 106.6 37.7 110.4C33.9 114.3 28.2 121.8 31.4 125C31.7 125.3 32.2 125.5 32.7 125.5C32.8 125.5 32.9 125.5 33 125.5C33.3 125.4 40.4 124 45.7 118.6C48.8 115.5 50.5 111.7 51.5 109.1C52.5 109.7 53.6 110.1 54.8 110.1C56 110.1 57.2 109.8 58.1 109.1C59.1 111.8 60.8 115.5 63.9 118.6C69.2 124 76.3 125.5 76.6 125.5C76.7 125.5 76.8 125.5 76.9 125.5C77.4 125.5 77.8 125.3 78.2 125C81.4 121.8 75.7 114.3 71.9 110.4C68.5 106.6 63.9 104.7 61.3 104ZM43.3 116C40.3 119 36.6 120.6 34.4 121.3C35 119.6 36.8 116.5 40.3 112.9C42.8 110.3 45.9 108.8 48.1 107.9C47.4 110.2 45.9 113.4 43.3 116ZM55 106.3C53.5 106.3 52.3 105 52.3 103.5C52.3 101.9 53.5 100.7 55 100.7C56.5 100.7 57.7 102 57.7 103.5C57.7 105.1 56.5 106.3 55 106.3ZM66.7 116C64.2 113.4 62.6 110.3 61.8 108C64 108.9 67.1 110.4 69.6 113C73.2 116.6 74.9 119.7 75.5 121.4C73.3 120.6 69.6 119 66.7 116Z" fill="white"/>
</svg>
